<svg width="40" height="41" viewBox="0 0 40 41" fill="none" xmlns="http://www.w3.org/2000/svg">
<g clip-path="url(#clip0_293_294)">
<path d="M19.9999 3.83334C10.7999 3.83334 3.33325 11.3 3.33325 20.5C3.33325 29.7 10.7999 37.1667 19.9999 37.1667C29.1999 37.1667 36.6666 29.7 36.6666 20.5C36.6666 11.3 29.1999 3.83334 19.9999 3.83334ZM19.9999 8.83334C22.7666 8.83334 24.9999 11.0667 24.9999 13.8333C24.9999 16.6 22.7666 18.8333 19.9999 18.8333C17.2333 18.8333 14.9999 16.6 14.9999 13.8333C14.9999 11.0667 17.2333 8.83334 19.9999 8.83334ZM19.9999 32.5C15.8333 32.5 12.1499 30.3667 9.99992 27.1333C10.0499 23.8167 16.6666 22 19.9999 22C23.3166 22 29.9499 23.8167 29.9999 27.1333C27.8499 30.3667 24.1666 32.5 19.9999 32.5Z" fill="#248F59"/>
</g>
<defs>
<clipPath id="clip0_293_294">
<rect width="40" height="40" fill="white" transform="translate(0 0.5)"/>
</clipPath>
</defs>
</svg>
