<svg width="40" height="41" viewBox="0 0 40 41" fill="none" xmlns="http://www.w3.org/2000/svg">
<g clip-path="url(#clip0_293_297)">
<path d="M11.6667 30.5C9.83341 30.5 8.35008 32 8.35008 33.8333C8.35008 35.6667 9.83341 37.1667 11.6667 37.1667C13.5001 37.1667 15.0001 35.6667 15.0001 33.8333C15.0001 32 13.5001 30.5 11.6667 30.5ZM1.66675 3.83334V7.16668H5.00008L11.0001 19.8167L8.75008 23.9C8.48341 24.3667 8.33341 24.9167 8.33341 25.5C8.33341 27.3333 9.83341 28.8333 11.6667 28.8333H31.6667V25.5H12.3667C12.1334 25.5 11.9501 25.3167 11.9501 25.0833L12.0001 24.8833L13.5001 22.1667H25.9167C27.1667 22.1667 28.2667 21.4833 28.8334 20.45L34.8001 9.63334C34.9334 9.40001 35.0001 9.11668 35.0001 8.83334C35.0001 7.91668 34.2501 7.16668 33.3334 7.16668H8.68341L7.11675 3.83334H1.66675ZM28.3334 30.5C26.5001 30.5 25.0167 32 25.0167 33.8333C25.0167 35.6667 26.5001 37.1667 28.3334 37.1667C30.1667 37.1667 31.6667 35.6667 31.6667 33.8333C31.6667 32 30.1667 30.5 28.3334 30.5Z" fill="#248F59"/>
</g>
<defs>
<clipPath id="clip0_293_297">
<rect width="40" height="40" fill="white" transform="translate(0 0.5)"/>
</clipPath>
</defs>
</svg>
