<svg width="31" height="39" viewBox="0 0 31 39" fill="none" xmlns="http://www.w3.org/2000/svg">
<path fill-rule="evenodd" clip-rule="evenodd" d="M22.5292 8.0749H26.2841C28.3493 8.0749 30.039 9.76459 30.039 11.8298V34.359C30.039 36.4242 28.3493 38.1139 26.2841 38.1139H3.75487C1.68969 38.1139 0 36.4242 0 34.359V11.8298C0 9.76459 1.68969 8.0749 3.75487 8.0749H7.50975C7.50975 3.92577 10.8704 0.565155 15.0195 0.565155C19.1686 0.565155 22.5292 3.92577 22.5292 8.0749ZM9.38718 17.4621C10.4198 17.4621 11.2646 16.6172 11.2646 15.5846V11.8298H7.50975V15.5846C7.50975 16.6172 8.35459 17.4621 9.38718 17.4621ZM18.7744 8.0749C18.7744 6.00972 17.0847 4.32003 15.0195 4.32003C12.9543 4.32003 11.2646 6.00972 11.2646 8.0749H18.7744ZM20.6518 17.4621C21.6844 17.4621 22.5292 16.6172 22.5292 15.5846V11.8298H18.7744V15.5846C18.7744 16.6172 19.6192 17.4621 20.6518 17.4621ZM10.4878 23.8713C10.4878 21.3659 12.5141 19.3396 15.0195 19.3396C17.5249 19.3396 19.5512 21.3659 19.5512 23.8713C19.5512 27.2701 15.0195 32.2874 15.0195 32.2874C15.0195 32.2874 10.4878 27.2701 10.4878 23.8713ZM13.401 23.8713C13.401 24.7647 14.1261 25.4898 15.0195 25.4898C15.9129 25.4898 16.638 24.7647 16.638 23.8713C16.638 22.9779 15.9129 22.2528 15.0195 22.2528C14.1261 22.2528 13.401 22.9779 13.401 23.8713Z" fill="#248F59"/>
</svg>
