<svg width="184" height="51" viewBox="0 0 184 51" fill="none" xmlns="http://www.w3.org/2000/svg">
<path d="M39.0921 34.0395C40.5527 34.0395 41.8948 35.8947 44.7764 35.8947C49.4738 35.8947 53.7765 31.0394 53.7765 23.8947C53.7765 17.7367 50.8949 13.7893 46.829 13.7893C44.6185 13.7893 42.6448 15.3288 40.3948 17.3025V3.80241L40.079 3.60504C37.9474 5.46032 36.1316 6.36822 33.0526 6.36822V7.11823C35.8158 7.11823 36.7632 7.39454 36.7632 9.96035V35.8947H37.5132C37.6711 34.5526 38.3421 34.0395 39.0921 34.0395ZM45.0922 34.9079C42.8422 34.9079 40.8685 33.0526 40.3948 30.3289V22.592C40.3948 19.4736 42.0132 15.8814 45.2106 15.8814C48.0527 15.8814 49.7501 18.9999 49.7501 25.7499C49.7501 31.8289 48.0133 34.9079 45.0922 34.9079ZM73.0413 35.5V34.75C70.2386 34.4737 70.0807 34.4342 70.0807 30.2894V19.6709C70.0807 15.8814 68.5413 13.7893 64.8307 13.7893C61.1201 13.7893 56.857 16.2367 56.857 18.5657C56.857 19.3946 57.3701 20.3025 58.8701 20.3025C62.4228 20.3025 59.4228 14.8946 63.3702 14.8946C65.5412 14.8946 66.4491 16.6709 66.4491 20.7367V24.9999L62.0675 26.4605C57.8043 27.8815 56.2649 29.0657 56.2649 31.4737C56.2649 33.4868 57.4096 35.8947 60.4491 35.8947C62.6596 35.8947 64.7123 34.5526 66.4491 33.2105V35.5H73.0413ZM62.3438 33.8026C60.6859 33.8026 59.9754 32.421 59.9754 31.0394C59.9754 29.4605 60.7649 28.2368 63.4886 27.3289L66.4491 26.3815V30.2894C66.1333 32.8552 63.8044 33.8026 62.3438 33.8026ZM90.0953 28.75L89.3453 28.5921C87.8452 32.5 85.5952 34.4737 82.0426 34.4737H78.5689L89.5032 15.3288V14.5788H80.4636C78.1347 14.5788 76.832 14.5788 76.4373 13.3946H75.7267L74.3846 19.7499L75.1346 19.9078C76.2794 16.592 78.8452 15.6051 82.0821 15.6051H85.1215L74.1873 34.75V35.5H82.3978C84.7663 35.5 86.3058 35.5 86.9768 36.6842H87.7663L90.0953 28.75ZM108.66 35.5V34.75C105.858 34.4737 105.7 34.4342 105.7 30.2894V19.6709C105.7 15.8814 104.16 13.7893 100.45 13.7893C96.7392 13.7893 92.476 16.2367 92.476 18.5657C92.476 19.3946 92.9892 20.3025 94.4892 20.3025C98.0419 20.3025 95.0418 14.8946 98.9892 14.8946C101.16 14.8946 102.068 16.6709 102.068 20.7367V24.9999L97.6866 26.4605C93.4234 27.8815 91.8839 29.0657 91.8839 31.4737C91.8839 33.4868 93.0287 35.8947 96.0682 35.8947C98.2787 35.8947 100.331 34.5526 102.068 33.2105V35.5H108.66ZM97.9629 33.8026C96.305 33.8026 95.5945 32.421 95.5945 31.0394C95.5945 29.4605 96.384 28.2368 99.1077 27.3289L102.068 26.3815V30.2894C101.752 32.8552 99.4235 33.8026 97.9629 33.8026ZM120.82 34.75C116.833 34.4737 116.675 34.4342 116.675 30.2894V23.7368C116.675 18.4867 118.372 15.9999 120.109 15.9999C121.57 15.9999 121.491 18.0525 123.149 18.0525C124.333 18.0525 125.083 17.0262 125.083 15.9604C125.083 14.6183 123.859 13.7893 122.122 13.7893C120.267 13.7893 118.649 14.7762 116.675 17.3815V13.9867L115.964 13.7893C114.227 15.6446 112.412 16.5525 109.333 16.5525V17.3025C112.096 17.3025 113.043 17.5788 113.043 20.1446V30.2894C113.043 34.4342 112.925 34.5132 109.727 34.75V35.5H120.82V34.75ZM129.591 35.8947C131.288 35.8947 132.63 34.6316 132.63 32.8947C132.63 31.1973 131.288 29.8158 129.591 29.8158C127.933 29.8158 126.551 31.1973 126.551 32.8947C126.551 34.6316 127.933 35.8947 129.591 35.8947ZM144.618 41.8553C141.42 41.579 141.262 41.5395 141.262 37.3947V34.3947C142.328 34.9474 143.591 35.8947 145.644 35.8947C150.341 35.8947 154.644 31.0394 154.644 23.8947C154.644 17.7367 151.763 13.7893 147.697 13.7893C145.486 13.7893 143.512 15.3288 141.262 17.3025V13.7893L140.947 13.592C138.815 15.4472 136.999 16.3551 133.92 16.3551V17.1051C136.683 17.1051 137.631 17.3815 137.631 19.9473V37.3947C137.631 41.5395 137.512 41.6185 134.71 41.8553V42.6053H144.618V41.8553ZM145.96 34.9079C143.71 34.9079 141.736 33.0526 141.262 30.3289V22.592C141.262 19.4736 142.881 15.8814 146.078 15.8814C148.92 15.8814 150.618 18.9999 150.618 25.7499C150.618 31.8289 148.881 34.9079 145.96 34.9079ZM166.265 34.75C163.463 34.4737 163.305 34.4342 163.305 30.2894V24.9999L164.529 23.7762L170.766 35.5H176.805V34.75C175.068 34.75 174.595 33.921 172.463 30.2894L167.094 21.1315L169.739 18.4078C171.713 16.3551 173.094 15.6051 175.345 15.3288V14.5788H168.002V15.3288C170.45 15.5657 169.818 16.9472 166.542 20.1841L163.305 23.3815V3.80241L162.989 3.60504C160.858 5.46032 159.042 6.36822 155.963 6.36822V7.11823C158.726 7.11823 159.673 7.39454 159.673 9.96035V30.2894C159.673 34.4342 159.555 34.5132 156.358 34.75V35.5H166.265V34.75Z" fill="#248F59"/>
<path fill-rule="evenodd" clip-rule="evenodd" d="M22.5292 8.0749H26.2841C28.3493 8.0749 30.039 9.76459 30.039 11.8298V34.359C30.039 36.4242 28.3493 38.1139 26.2841 38.1139H3.75487C1.68969 38.1139 0 36.4242 0 34.359V11.8298C0 9.76459 1.68969 8.0749 3.75487 8.0749H7.50975C7.50975 3.92577 10.8704 0.565155 15.0195 0.565155C19.1686 0.565155 22.5292 3.92577 22.5292 8.0749ZM9.38718 17.4621C10.4198 17.4621 11.2646 16.6172 11.2646 15.5846V11.8298H7.50975V15.5846C7.50975 16.6172 8.35459 17.4621 9.38718 17.4621ZM18.7744 8.0749C18.7744 6.00972 17.0847 4.32003 15.0195 4.32003C12.9543 4.32003 11.2646 6.00972 11.2646 8.0749H18.7744ZM20.6518 17.4621C21.6844 17.4621 22.5292 16.6172 22.5292 15.5846V11.8298H18.7744V15.5846C18.7744 16.6172 19.6192 17.4621 20.6518 17.4621ZM10.4878 23.8713C10.4878 21.3659 12.5141 19.3396 15.0195 19.3396C17.5249 19.3396 19.5512 21.3659 19.5512 23.8713C19.5512 27.2701 15.0195 32.2874 15.0195 32.2874C15.0195 32.2874 10.4878 27.2701 10.4878 23.8713ZM13.401 23.8713C13.401 24.7647 14.1261 25.4898 15.0195 25.4898C15.9129 25.4898 16.638 24.7647 16.638 23.8713C16.638 22.9779 15.9129 22.2528 15.0195 22.2528C14.1261 22.2528 13.401 22.9779 13.401 23.8713Z" fill="#248F59"/>
</svg>
