<svg width="184" height="50" viewBox="0 0 184 50" fill="none" xmlns="http://www.w3.org/2000/svg">
<path d="M39.0921 33.5395C40.5527 33.5395 41.8948 35.3947 44.7764 35.3947C49.4738 35.3947 53.7765 30.5394 53.7765 23.3947C53.7765 17.2367 50.8949 13.2893 46.829 13.2893C44.6185 13.2893 42.6448 14.8288 40.3948 16.8025V3.30241L40.079 3.10504C37.9474 4.96032 36.1316 5.86822 33.0526 5.86822V6.61823C35.8158 6.61823 36.7632 6.89454 36.7632 9.46035V35.3947H37.5132C37.6711 34.0526 38.3421 33.5395 39.0921 33.5395ZM45.0922 34.4079C42.8422 34.4079 40.8685 32.5526 40.3948 29.8289V22.092C40.3948 18.9736 42.0132 15.3814 45.2106 15.3814C48.0527 15.3814 49.7501 18.4999 49.7501 25.2499C49.7501 31.3289 48.0133 34.4079 45.0922 34.4079ZM73.0413 35V34.25C70.2386 33.9737 70.0807 33.9342 70.0807 29.7894V19.1709C70.0807 15.3814 68.5413 13.2893 64.8307 13.2893C61.1201 13.2893 56.857 15.7367 56.857 18.0657C56.857 18.8946 57.3701 19.8025 58.8701 19.8025C62.4228 19.8025 59.4228 14.3946 63.3702 14.3946C65.5412 14.3946 66.4491 16.1709 66.4491 20.2367V24.4999L62.0675 25.9605C57.8043 27.3815 56.2649 28.5657 56.2649 30.9737C56.2649 32.9868 57.4096 35.3947 60.4491 35.3947C62.6596 35.3947 64.7123 34.0526 66.4491 32.7105V35H73.0413ZM62.3438 33.3026C60.6859 33.3026 59.9754 31.921 59.9754 30.5394C59.9754 28.9605 60.7649 27.7368 63.4886 26.8289L66.4491 25.8815V29.7894C66.1333 32.3552 63.8044 33.3026 62.3438 33.3026ZM90.0953 28.25L89.3453 28.0921C87.8452 32 85.5952 33.9737 82.0426 33.9737H78.5689L89.5032 14.8288V14.0788H80.4636C78.1347 14.0788 76.832 14.0788 76.4373 12.8946H75.7267L74.3846 19.2499L75.1346 19.4078C76.2794 16.092 78.8452 15.1051 82.0821 15.1051H85.1215L74.1873 34.25V35H82.3978C84.7663 35 86.3058 35 86.9768 36.1842H87.7663L90.0953 28.25ZM108.66 35V34.25C105.858 33.9737 105.7 33.9342 105.7 29.7894V19.1709C105.7 15.3814 104.16 13.2893 100.45 13.2893C96.7392 13.2893 92.476 15.7367 92.476 18.0657C92.476 18.8946 92.9892 19.8025 94.4892 19.8025C98.0419 19.8025 95.0418 14.3946 98.9892 14.3946C101.16 14.3946 102.068 16.1709 102.068 20.2367V24.4999L97.6866 25.9605C93.4234 27.3815 91.8839 28.5657 91.8839 30.9737C91.8839 32.9868 93.0287 35.3947 96.0682 35.3947C98.2787 35.3947 100.331 34.0526 102.068 32.7105V35H108.66ZM97.9629 33.3026C96.305 33.3026 95.5945 31.921 95.5945 30.5394C95.5945 28.9605 96.384 27.7368 99.1077 26.8289L102.068 25.8815V29.7894C101.752 32.3552 99.4235 33.3026 97.9629 33.3026ZM120.82 34.25C116.833 33.9737 116.675 33.9342 116.675 29.7894V23.2368C116.675 17.9867 118.372 15.4999 120.109 15.4999C121.57 15.4999 121.491 17.5525 123.149 17.5525C124.333 17.5525 125.083 16.5262 125.083 15.4604C125.083 14.1183 123.859 13.2893 122.122 13.2893C120.267 13.2893 118.649 14.2762 116.675 16.8815V13.4867L115.964 13.2893C114.227 15.1446 112.412 16.0525 109.333 16.0525V16.8025C112.096 16.8025 113.043 17.0788 113.043 19.6446V29.7894C113.043 33.9342 112.925 34.0132 109.727 34.25V35H120.82V34.25ZM129.591 35.3947C131.288 35.3947 132.63 34.1316 132.63 32.3947C132.63 30.6973 131.288 29.3158 129.591 29.3158C127.933 29.3158 126.551 30.6973 126.551 32.3947C126.551 34.1316 127.933 35.3947 129.591 35.3947ZM144.618 41.3553C141.42 41.079 141.262 41.0395 141.262 36.8947V33.8947C142.328 34.4474 143.591 35.3947 145.644 35.3947C150.341 35.3947 154.644 30.5394 154.644 23.3947C154.644 17.2367 151.763 13.2893 147.697 13.2893C145.486 13.2893 143.512 14.8288 141.262 16.8025V13.2893L140.947 13.092C138.815 14.9472 136.999 15.8551 133.92 15.8551V16.6051C136.683 16.6051 137.631 16.8815 137.631 19.4473V36.8947C137.631 41.0395 137.512 41.1185 134.71 41.3553V42.1053H144.618V41.3553ZM145.96 34.4079C143.71 34.4079 141.736 32.5526 141.262 29.8289V22.092C141.262 18.9736 142.881 15.3814 146.078 15.3814C148.92 15.3814 150.618 18.4999 150.618 25.2499C150.618 31.3289 148.881 34.4079 145.96 34.4079ZM166.265 34.25C163.463 33.9737 163.305 33.9342 163.305 29.7894V24.4999L164.529 23.2762L170.766 35H176.805V34.25C175.068 34.25 174.595 33.421 172.463 29.7894L167.094 20.6315L169.739 17.9078C171.713 15.8551 173.094 15.1051 175.345 14.8288V14.0788H168.002V14.8288C170.45 15.0657 169.818 16.4472 166.542 19.6841L163.305 22.8815V3.30241L162.989 3.10504C160.858 4.96032 159.042 5.86822 155.963 5.86822V6.61823C158.726 6.61823 159.673 6.89454 159.673 9.46035V29.7894C159.673 33.9342 159.555 34.0132 156.358 34.25V35H166.265V34.25Z" fill="black" fill-opacity="0.3"/>
<path fill-rule="evenodd" clip-rule="evenodd" d="M22.5292 7.57493H26.2841C28.3493 7.57493 30.039 9.26462 30.039 11.3298V33.859C30.039 35.9242 28.3493 37.6139 26.2841 37.6139H3.75487C1.68969 37.6139 0 35.9242 0 33.859V11.3298C0 9.26462 1.68969 7.57493 3.75487 7.57493H7.50975C7.50975 3.4258 10.8704 0.0651855 15.0195 0.0651855C19.1686 0.0651855 22.5292 3.4258 22.5292 7.57493ZM9.38718 16.9621C10.4198 16.9621 11.2646 16.1173 11.2646 15.0847V11.3298H7.50975V15.0847C7.50975 16.1173 8.35459 16.9621 9.38718 16.9621ZM18.7744 7.57493C18.7744 5.50975 17.0847 3.82006 15.0195 3.82006C12.9543 3.82006 11.2646 5.50975 11.2646 7.57493H18.7744ZM20.6518 16.9621C21.6844 16.9621 22.5292 16.1173 22.5292 15.0847V11.3298H18.7744V15.0847C18.7744 16.1173 19.6192 16.9621 20.6518 16.9621ZM10.4878 23.3713C10.4878 20.8659 12.5141 18.8396 15.0195 18.8396C17.5249 18.8396 19.5512 20.8659 19.5512 23.3713C19.5512 26.7701 15.0195 31.7874 15.0195 31.7874C15.0195 31.7874 10.4878 26.7701 10.4878 23.3713ZM13.401 23.3713C13.401 24.2647 14.1261 24.9898 15.0195 24.9898C15.9129 24.9898 16.638 24.2647 16.638 23.3713C16.638 22.4779 15.9129 21.7528 15.0195 21.7528C14.1261 21.7528 13.401 22.4779 13.401 23.3713Z" fill="black" fill-opacity="0.3"/>
</svg>
